<svg xmlns="http://www.w3.org/2000/svg" xmlns:xlink="http://www.w3.org/1999/xlink" width="70" zoomAndPan="magnify" viewBox="0 0 52.5 36.000001" height="48" preserveAspectRatio="xMidYMid meet" version="1.0"><defs><clipPath id="id1"><path d="M 13 1 L 45 1 L 45 32 L 13 32 Z M 13 1 " clip-rule="nonzero"/></clipPath><clipPath id="id2"><path d="M 20.996094 -4.78125 L 51.265625 24.320312 L 31.867188 44.5 L 1.59375 15.398438 Z M 20.996094 -4.78125 " clip-rule="nonzero"/></clipPath><clipPath id="id3"><path d="M 20.996094 -4.78125 L 51.265625 24.320312 L 31.867188 44.5 L 1.59375 15.398438 Z M 20.996094 -4.78125 " clip-rule="nonzero"/></clipPath><clipPath id="id4"><path d="M 20.996094 -4.78125 L 51.265625 24.320312 L 31.867188 44.5 L 1.59375 15.398438 Z M 20.996094 -4.78125 " clip-rule="nonzero"/></clipPath><clipPath id="id5"><path d="M 13 9 L 38 9 L 38 33 L 13 33 Z M 13 9 " clip-rule="nonzero"/></clipPath><clipPath id="id6"><path d="M 20.996094 -4.78125 L 51.265625 24.320312 L 31.867188 44.5 L 1.59375 15.398438 Z M 20.996094 -4.78125 " clip-rule="nonzero"/></clipPath><clipPath id="id7"><path d="M 20.996094 -4.78125 L 51.265625 24.320312 L 31.867188 44.5 L 1.59375 15.398438 Z M 20.996094 -4.78125 " clip-rule="nonzero"/></clipPath><clipPath id="id8"><path d="M 20.996094 -4.78125 L 51.265625 24.320312 L 31.867188 44.5 L 1.59375 15.398438 Z M 20.996094 -4.78125 " clip-rule="nonzero"/></clipPath><clipPath id="id9"><path d="M 13 17 L 29 17 L 29 33 L 13 33 Z M 13 17 " clip-rule="nonzero"/></clipPath><clipPath id="id10"><path d="M 20.996094 -4.78125 L 51.265625 24.320312 L 31.867188 44.5 L 1.59375 15.398438 Z M 20.996094 -4.78125 " clip-rule="nonzero"/></clipPath><clipPath id="id11"><path d="M 20.996094 -4.78125 L 51.265625 24.320312 L 31.867188 44.5 L 1.59375 15.398438 Z M 20.996094 -4.78125 " clip-rule="nonzero"/></clipPath><clipPath id="id12"><path d="M 20.996094 -4.78125 L 51.265625 24.320312 L 31.867188 44.5 L 1.59375 15.398438 Z M 20.996094 -4.78125 " clip-rule="nonzero"/></clipPath><clipPath id="id13"><path d="M 16 26 L 20 26 L 20 31 L 16 31 Z M 16 26 " clip-rule="nonzero"/></clipPath><clipPath id="id14"><path d="M 20.996094 -4.78125 L 51.265625 24.320312 L 31.867188 44.5 L 1.59375 15.398438 Z M 20.996094 -4.78125 " clip-rule="nonzero"/></clipPath><clipPath id="id15"><path d="M 20.996094 -4.78125 L 51.265625 24.320312 L 31.867188 44.5 L 1.59375 15.398438 Z M 20.996094 -4.78125 " clip-rule="nonzero"/></clipPath><clipPath id="id16"><path d="M 20.996094 -4.78125 L 51.265625 24.320312 L 31.867188 44.5 L 1.59375 15.398438 Z M 20.996094 -4.78125 " clip-rule="nonzero"/></clipPath></defs><g clip-path="url(#id1)"><g clip-path="url(#id2)"><g clip-path="url(#id3)"><g clip-path="url(#id4)"><path fill="#29abe2" d="M 44.929688 29.589844 C 44.824219 25.785156 43.976562 22.105469 42.414062 18.648438 C 40.902344 15.308594 38.789062 12.324219 36.132812 9.765625 C 33.472656 7.210938 30.40625 5.21875 27.011719 3.839844 C 23.496094 2.414062 19.785156 1.710938 15.980469 1.757812 C 14.707031 1.773438 13.703125 2.816406 13.738281 4.089844 C 13.773438 5.359375 14.832031 6.378906 16.105469 6.367188 C 29.097656 6.210938 39.960938 16.65625 40.320312 29.644531 C 40.339844 30.28125 40.613281 30.851562 41.039062 31.265625 C 41.46875 31.675781 42.050781 31.925781 42.6875 31.921875 C 43.960938 31.90625 44.964844 30.863281 44.929688 29.589844 Z M 44.929688 29.589844 " fill-opacity="1" fill-rule="nonzero"/></g></g></g></g><g clip-path="url(#id5)"><g clip-path="url(#id6)"><g clip-path="url(#id7)"><g clip-path="url(#id8)"><path fill="#29abe2" d="M 30.519531 15.601562 C 26.417969 11.660156 21.046875 9.523438 15.398438 9.589844 C 14.125 9.605469 13.121094 10.648438 13.15625 11.921875 C 13.191406 13.195312 14.253906 14.214844 15.523438 14.199219 C 24.640625 14.09375 32.257812 21.417969 32.511719 30.527344 C 32.527344 31.164062 32.800781 31.738281 33.230469 32.148438 C 33.660156 32.5625 34.242188 32.8125 34.878906 32.804688 C 36.152344 32.789062 37.15625 31.746094 37.121094 30.476562 C 36.964844 24.824219 34.621094 19.542969 30.519531 15.601562 Z M 30.519531 15.601562 " fill-opacity="1" fill-rule="nonzero"/></g></g></g></g><g clip-path="url(#id9)"><g clip-path="url(#id10)"><g clip-path="url(#id11)"><g clip-path="url(#id12)"><path fill="#29abe2" d="M 24.789062 21.5625 C 22.28125 19.152344 19 17.847656 15.546875 17.890625 C 14.273438 17.90625 13.269531 18.949219 13.304688 20.222656 C 13.339844 21.492188 14.402344 22.511719 15.675781 22.496094 C 20.257812 22.445312 24.085938 26.125 24.214844 30.707031 C 24.230469 31.34375 24.503906 31.914062 24.933594 32.328125 C 25.363281 32.738281 25.945312 32.992188 26.582031 32.984375 C 27.855469 32.96875 28.859375 31.925781 28.824219 30.652344 C 28.726562 27.199219 27.292969 23.972656 24.789062 21.5625 Z M 24.789062 21.5625 " fill-opacity="1" fill-rule="nonzero"/></g></g></g></g><g clip-path="url(#id13)"><g clip-path="url(#id14)"><g clip-path="url(#id15)"><g clip-path="url(#id16)"><path fill="#29abe2" d="M 19.425781 29.910156 C 19.253906 30.089844 19.050781 30.230469 18.816406 30.332031 C 18.585938 30.433594 18.34375 30.484375 18.089844 30.488281 C 17.835938 30.488281 17.589844 30.445312 17.351562 30.347656 C 17.117188 30.253906 16.90625 30.121094 16.71875 29.941406 C 16.535156 29.765625 16.390625 29.558594 16.289062 29.324219 C 16.183594 29.09375 16.128906 28.847656 16.121094 28.59375 C 16.117188 28.34375 16.15625 28.097656 16.246094 27.863281 C 16.339844 27.625 16.472656 27.417969 16.644531 27.234375 C 16.820312 27.054688 17.023438 26.914062 17.253906 26.8125 C 17.488281 26.714844 17.730469 26.664062 17.984375 26.660156 C 18.238281 26.65625 18.484375 26.703125 18.71875 26.796875 C 18.957031 26.890625 19.167969 27.027344 19.351562 27.203125 C 19.535156 27.382812 19.679688 27.585938 19.785156 27.820312 C 19.886719 28.054688 19.941406 28.296875 19.949219 28.550781 C 19.957031 28.804688 19.914062 29.050781 19.824219 29.285156 C 19.734375 29.519531 19.601562 29.730469 19.425781 29.910156 Z M 19.425781 29.910156 " fill-opacity="1" fill-rule="nonzero"/></g></g></g></g></svg>